#!OML:ASF G:\JayActor3\Patient Classification 1\Patient 1\Session 5\male.ASF
:FULLY-SPECIFIED
:DEGREES
991
root -60.7476 17.1793 -7.38518 1776.48 -95.8406 -1766.31
lowerback 9.00222 -0.491454 2.16611
upperback 6.80773 -0.814253 0.849385
thorax 2.00482 -0.475375 -0.284266
lowerneck -1.83431 -0.255216 -0.549044
upperneck -1.60832 -0.33323 4.50884
head -0.178973 -0.18418 1.47942
rclavicle -4.67144e-015 3.57812e-014
rhumerus -27.4524 -2.4521 -87.4476
rradius 22.9211
rwrist 5.6374
rhand -23.9755 -5.9798
rfingers 7.12502
rthumb 2.50104 -35.9449
lclavicle -4.67144e-015 3.57812e-014
lhumerus -33.9293 5.90491 84.7506
lradius 26.4075
lwrist 20.612
lhand -19.9744 11.6667
lfingers 7.12502
lthumb 6.36453 41.5511
rfemur -39.758 -1.6378 32.9402
rtibia 53.1223
rfoot -3.87729 0.586464
rtoes 5.73955
lfemur -20.5255 5.04537 -8.86492
ltibia 53.1638
lfoot -2.5219 -7.89589
ltoes -18.3782
992
root -60.8807 17.224 -7.39583 1778.57 -96.3172 -1768.53
lowerback 8.81235 -0.453325 2.0576
upperback 6.72788 -0.768019 0.821252
thorax 2.02629 -0.452963 -0.257469
lowerneck -2.00581 -0.370973 -0.572401
upperneck -1.41756 -0.495549 4.59272
head -0.0870102 -0.260528 1.50873
rclavicle 1.26228e-014 5.96354e-016
rhumerus -27.594 -2.3991 -87.4414
rradius 22.88
rwrist 5.70596
rhand -23.804 -6.10434
rfingers 7.12502
rthumb 2.66667 -36.0674
lclavicle 1.26228e-014 5.96354e-016
lhumerus -34.183 6.07715 84.6184
lradius 26.1447
lwrist 20.4295
lhand -19.9309 11.7675
lfingers 7.12502
lthumb 6.4065 41.6506
rfemur -38.733 -1.02717 32.8471
rtibia 52.5599
rfoot -3.75943 0.46629
rtoes 6.41351
lfemur -21.4362 4.84572 -8.87716
ltibia 52.6837
lfoot -3.48469 -7.21801
ltoes -17.1785
993
root -61.0139 17.2653 -7.40585 1780.54 -96.813 -1770.61
lowerback 8.59633 -0.419504 1.94406
upperback 6.61454 -0.724807 0.783597
thorax 2.02695 -0.431233 -0.237311
lowerneck -2.13187 -0.506728 -0.574856
upperneck -1.22213 -0.685276 4.7038
head -8.60228e-005 -0.351073 1.54281
rclavicle 3.97569e-015 -7.35503e-015
rhumerus -27.793 -2.38841 -87.4247
rradius 22.8494
rwrist 5.79181
rhand -23.6221 -6.28677
rfingers 7.12502
rthumb 2.84233 -36.2476
lclavicle 3.97569e-015 -7.35503e-015
lhumerus -34.4833 6.24256 84.4705
lradius 25.8773
lwrist 20.2499
lhand -19.8253 11.9023
lfingers 7.12502
lthumb 6.50848 41.7823
rfemur -37.7362 -0.389389 32.7499
rtibia 52.0068
rfoot -3.66211 0.329956
rtoes 7.1455
lfemur -22.3416 4.65286 -8.90455
ltibia 52.1418
lfoot -4.37217 -6.52283
ltoes -15.9018
994
root -61.1471 17.3028 -7.41591 1782.34 -97.3519 -1772.49
lowerback 8.35776 -0.394014 1.8454
upperback 6.46189 -0.688337 0.733035
thorax 1.99867 -0.41127 -0.238108
lowerneck -2.26701 -0.589931 -0.596464
upperneck -0.864066 -0.810323 4.8203
head 0.137153 -0.405939 1.58215
rclavicle 1.13307e-014 -8.34896e-015
rhumerus -28.0215 -2.37726 -87.4227
rradius 22.788
rwrist 5.87682
rhand -23.4511 -6.46863
rfingers 7.12502
rthumb 3.00744 -36.4272
lclavicle 1.13307e-014 -8.34896e-015
lhumerus -34.839 6.41813 84.2875
lradius 25.6112
lwrist 20.0702
lhand -19.6602 12.0883
lfingers 7.12502
lthumb 6.66783 41.9633
rfemur -36.7767 0.304022 32.665
rtibia 51.472
rfoot -3.57591 0.166586
rtoes 8.03683
lfemur -23.2524 4.48962 -8.92572
ltibia 51.5552
lfoot -5.18705 -5.82578
ltoes -14.6005
995
root -61.2805 17.3376 -7.4249 1783.85 -97.8937 -1774.05
lowerback 8.08794 -0.376923 1.77578
upperback 6.28506 -0.659561 0.681772
thorax 1.96232 -0.39352 -0.255377
lowerneck -2.45529 -0.618199 -0.65447
upperneck -0.381769 -0.86702 4.95001
head 0.320637 -0.42347 1.63295
rclavicle 2.55438e-014 1.98785e-015
rhumerus -28.2698 -2.38892 -87.408
rradius 22.7295
rwrist 5.95619
rhand -23.317 -6.59265
rfingers 7.12502
rthumb 3.13696 -36.5493
lclavicle 2.55438e-014 1.98785e-015
lhumerus -35.2107 6.58467 84.1026
lradius 25.3468
lwrist 19.8691
lhand -19.4583 12.2902
lfingers 7.12502
lthumb 6.86273 42.1589
rfemur -35.8668 0.978229 32.5937
rtibia 50.9586
rfoot -3.48562 -0.0259872
rtoes 8.80367
lfemur -24.2184 4.30667 -8.94419
ltibia 50.9254
lfoot -5.90825 -5.05807
ltoes -13.1899
996
root -61.4149 17.3698 -7.43272 1785.09 -98.4368 -1775.33
lowerback 7.7964 -0.372861 1.74753
upperback 6.11314 -0.646407 0.630432
thorax 1.94297 -0.382186 -0.295022
lowerneck -2.79615 -0.583457 -0.746017
upperneck 0.257674 -0.846412 5.05343
head 0.577502 -0.397636 1.68329
rclavicle 1.21259e-014 -1.31198e-014
rhumerus -28.4865 -2.41075 -87.3867
rradius 22.6692
rwrist 6.03047
rhand -23.2355 -6.67491
rfingers 7.12502
rthumb 3.21567 -36.6304
lclavicle 1.21259e-014 -1.31198e-014
lhumerus -35.5585 6.73174 83.937
lradius 25.0691
lwrist 19.6034
lhand -19.3488 12.3566
lfingers 7.12502
lthumb 6.96846 42.2219
rfemur -34.9855 1.61456 32.5387
rtibia 50.4675
rfoot -3.38559 -0.215423
rtoes 9.4411
lfemur -25.2076 4.10161 -8.95301
ltibia 50.2472
lfoot -6.51189 -4.23877
ltoes -11.7227
997
root -61.551 17.4004 -7.44087 1786.15 -99.0174 -1776.43
lowerback 7.48795 -0.364782 1.73793
upperback 5.95395 -0.628385 0.582466
thorax 1.94668 -0.368083 -0.342059
lowerneck -3.21262 -0.512449 -0.877416
upperneck 0.97392 -0.780677 5.17317
head 0.872539 -0.347081 1.74903
rclavicle 2.19657e-014 3.4191e-014
rhumerus -28.6779 -2.43323 -87.3631
rradius 22.6194
rwrist 6.09375
rhand -23.1278 -6.81097
rfingers 7.12502
rthumb 3.31968 -36.7649
lclavicle 2.19657e-014 3.4191e-014
lhumerus -35.8865 6.86532 83.7881
lradius 24.7927
lwrist 19.2848
lhand -19.3418 12.3019
lfingers 7.12502
lthumb 6.97524 42.167
rfemur -34.1015 2.25475 32.5031
rtibia 49.9916
rfoot -3.26371 -0.407234
rtoes 9.95236
lfemur -26.1718 3.91148 -8.94038
ltibia 49.5066
lfoot -6.97158 -3.38644
ltoes -10.2646
998
root -61.6875 17.4293 -7.44893 1787.04 -99.639 -1777.36
lowerback 7.17085 -0.351677 1.75007
upperback 5.80696 -0.604006 0.541918
thorax 1.9684 -0.350533 -0.393986
lowerneck -3.70436 -0.430513 -1.02035
upperneck 1.69132 -0.700829 5.28948
head 1.18378 -0.288802 1.81891
rclavicle 1.78906e-015 -1.47101e-014
rhumerus -28.8231 -2.45292 -87.3377
rradius 22.5628
rwrist 6.14886
rhand -23.0209 -6.97323
rfingers 7.12502
rthumb 3.42293 -36.9255
lclavicle 1.78906e-015 -1.47101e-014
lhumerus -36.1782 7.00155 83.6554
lradius 24.5187
lwrist 18.9267
lhand -19.4397 12.1223
lfingers 7.12502
lthumb 6.88067 41.9905
rfemur -33.2362 2.91829 32.4881
rtibia 49.5323
rfoot -3.10931 -0.617523
rtoes 10.2679
lfemur -27.1268 3.74313 -8.90096
ltibia 48.7089
lfoot -7.27146 -2.54548
ltoes -9.00043
999
root -61.8246 17.4568 -7.45688 1787.81 -100.307 -1778.17
lowerback 6.84231 -0.325607 1.76526
upperback 5.67419 -0.563944 0.511685
thorax 2.01208 -0.325493 -0.437778
lowerneck -4.17911 -0.388751 -1.13813
upperneck 2.34813 -0.674023 5.41152
head 1.47815 -0.258194 1.88709
rclavicle 5.1684e-015 -3.97569e-015
rhumerus -28.9279 -2.45465 -87.3113
rradius 22.4872
rwrist 6.17821
rhand -22.8937 -7.20254
rfingers 7.12502
rthumb 3.54571 -37.1528
lclavicle 5.1684e-015 -3.97569e-015
lhumerus -36.4547 7.14392 83.5372
lradius 24.2667
lwrist 18.5582
lhand -19.6252 11.8556
lfingers 7.12502
lthumb 6.70166 41.7295
rfemur -32.3683 3.59736 32.4863
rtibia 49.0882
rfoot -2.91937 -0.816343
rtoes 10.4273
lfemur -28.0191 3.61824 -8.84014
ltibia 47.8612
lfoot -7.44377 -1.79737
ltoes -8.02818
1000
root -61.9606 17.4824 -7.4652 1788.54 -101.049 -1778.91
lowerback 6.48831 -0.284388 1.77792
upperback 5.5221 -0.503285 0.489416
thorax 2.0507 -0.290113 -0.472683
lowerneck -4.58263 -0.356761 -1.25343
upperneck 2.98764 -0.660865 5.54835
head 1.75849 -0.235496 1.96077
rclavicle 3.97569e-016 1.19271e-015
rhumerus -29.06 -2.43255 -87.2924
rradius 22.4436
rwrist 6.19933
rhand -22.7133 -7.5292
rfingers 7.12502
rthumb 3.71996 -37.4765
lclavicle 3.97569e-016 1.19271e-015
lhumerus -36.7627 7.31753 83.4024
lradius 24.0577
lwrist 18.2383
lhand -19.798 11.6171
lfingers 7.12502
lthumb 6.53485 41.4962
rfemur -31.5467 4.34332 32.5
rtibia 48.6633
rfoot -2.68611 -1.01155
rtoes 10.4838
lfemur -28.8947 3.57989 -8.75384
ltibia 46.9853
lfoot -7.46656 -1.14841
ltoes -7.43971
1001
root -62.0954 17.5064 -7.47288 1789.23 -101.842 -1779.55
lowerback 6.07527 -0.226893 1.79619
upperback 5.33701 -0.419738 0.478767
thorax 2.08882 -0.242648 -0.499479
lowerneck -4.85263 -0.374813 -1.33301
upperneck 3.52445 -0.714148 5.69923
head 1.98679 -0.248744 2.03029
rclavicle -5.96354e-015 3.02153e-014
rhumerus -29.236 -2.41005 -87.2639
rradius 22.4321
rwrist 6.21445
rhand -22.5635 -7.79402
rfingers 7.12502
rthumb 3.86462 -37.7387
lclavicle -5.96354e-015 3.02153e-014
lhumerus -37.1157 7.50281 83.2608
lradius 23.9088
lwrist 18.0019
lhand -19.9127 11.4365
lfingers 7.12502
lthumb 6.4241 41.319
rfemur -30.8137 5.11244 32.5226
rtibia 48.2625
rfoot -2.40481 -1.18542
rtoes 10.4249
lfemur -29.8031 3.60857 -8.65072
ltibia 46.0953
lfoot -7.33882 -0.597216
ltoes -7.21808
1002
root -62.2286 17.5292 -7.48043 1789.95 -102.703 -1780.15
lowerback 5.60463 -0.166698 1.83313
upperback 5.12058 -0.331064 0.465013
thorax 2.12713 -0.191442 -0.539541
lowerneck -5.05183 -0.430192 -1.40185
upperneck 4.01352 -0.819068 5.8744
head 2.1911 -0.288718 2.10401
rclavicle 7.55382e-015 1.15295e-014
rhumerus -29.423 -2.34279 -87.2606
rradius 22.4391
rwrist 6.22929
rhand -22.4002 -8.07828
rfingers 7.12502
rthumb 4.02237 -38.0201
lclavicle 7.55382e-015 1.15295e-014
lhumerus -37.4948 7.73977 83.081
lradius 23.8156
lwrist 17.8749
lhand -19.9658 11.3423
lfingers 7.12502
lthumb 6.37279 41.2264
rfemur -30.1922 5.93012 32.5433
rtibia 47.8885
rfoot -2.07891 -1.32751
rtoes 10.3225
lfemur -30.7563 3.73676 -8.54128
ltibia 45.1983
lfoot -7.05828 -0.149651
ltoes -7.4881
1003
root -62.3599 17.5507 -7.48612 1790.71 -103.564 -1780.69
lowerback 5.05169 -0.110878 1.8851
upperback 4.89226 -0.248996 0.457906
thorax 2.19963 -0.142682 -0.580339
lowerneck -5.25022 -0.516627 -1.47227
upperneck 4.39798 -0.962 6.05274
head 2.36427 -0.348744 2.17696
rclavicle 1.98785e-014 -5.56597e-015
rhumerus -29.5636 -2.29202 -87.2367
rradius 22.4359
rwrist 6.27065
rhand -22.2856 -8.22487
rfingers 7.12502
rthumb 4.13297 -38.1645
lclavicle 1.98785e-014 -5.56597e-015
lhumerus -37.8343 8.00984 82.9028
lradius 23.7681
lwrist 17.8545
lhand -19.9374 11.3675
lfingers 7.12502
lthumb 6.40022 41.2508
rfemur -29.7171 6.701 32.5378
rtibia 47.5437
rfoot -1.73094 -1.39195
rtoes 10.1302
lfemur -31.8171 3.88379 -8.44741
ltibia 44.2909
lfoot -6.58205 0.289423
ltoes -7.97483
1004
root -62.4901 17.5712 -7.48946 1791.56 -104.406 -1781.25
lowerback 4.44586 -0.0681168 1.94409
upperback 4.67551 -0.186701 0.448127
thorax 2.31414 -0.10346 -0.626485
lowerneck -5.54902 -0.57343 -1.57397
upperneck 4.78109 -1.06302 6.22134
head 2.55585 -0.386646 2.2549
rclavicle -1.21259e-014 -1.98785e-015
rhumerus -29.6361 -2.25608 -87.1966
rradius 22.4332
rwrist 6.34996
rhand -22.2244 -8.28953
rfingers 7.12502
rthumb 4.19208 -38.228
lclavicle -1.21259e-014 -1.98785e-015
lhumerus -38.105 8.2969 82.7478
lradius 23.7406
lwrist 17.8805
lhand -19.9476 11.4016
lfingers 7.12502
lthumb 6.39037 41.2852
rfemur -29.3503 7.38516 32.4822
rtibia 47.2277
rfoot -1.43532 -1.2377
rtoes 10.0559
lfemur -32.9387 4.02177 -8.39413
ltibia 43.3641
lfoot -5.93724 0.729329
ltoes -8.61633
1005
root -62.6205 17.5908 -7.49147 1792.43 -105.247 -1781.81
lowerback 3.83188 -0.0318443 2.00755
upperback 4.48413 -0.135961 0.438555
thorax 2.4602 -0.0702436 -0.673895
lowerneck -5.90471 -0.600948 -1.71664
upperneck 5.10652 -1.11958 6.40454
head 2.73939 -0.402282 2.3473
rclavicle 1.55052e-014 1.59028e-014
rhumerus -29.6138 -2.28826 -87.1195
rradius 22.3809
rwrist 6.47785
rhand -22.1859 -8.20662
rfingers 7.12502
rthumb 4.22925 -38.1444
lclavicle 1.55052e-014 1.59028e-014
lhumerus -38.3032 8.59163 82.6194
lradius 23.7319
lwrist 17.9462
lhand -19.9839 11.4477
lfingers 7.12502
lthumb 6.35536 41.3323
rfemur -29.024 7.98838 32.3955
rtibia 46.9328
rfoot -1.23437 -0.818666
rtoes 10.1568
lfemur -34.052 4.16284 -8.36416
ltibia 42.4071
lfoot -5.15036 1.14462
ltoes -9.47707
